<svg width="501" height="436" viewBox="0 0 501 436" fill="none" xmlns="http://www.w3.org/2000/svg">
<style>
#arms{
  animation: pushing 8s infinite;
  transform-origin: top;

}
#card{
  animation: posting 8s infinite;
}
#lines{
  animation: highlighting 8s linear infinite;
}

@keyframes pushing {
  0% {
    transform: rotateY(0deg);

  }
  20% {
    transform: rotateY(25deg)
  }
  25%{
        transform: rotateX(-10deg)
  }
  100%{
        transform: rotateY(0deg);
  }
}
@keyframes posting {
  0% {
    transform: translate(0, 0);
  }
  25% {
    transform: translate(0,-16%)
  }
  35%{
        transform: translate(13.5%,-15.3%)

  }
  90%{
            transform: translate(13.5%,-15.3%)

  }
  100%{
    transform: translate(0, 0);
  }
}
@keyframes highlighting {
  0% {
    fill: #E6E6E6;
  }
  90%{
    fill: yellow;
  }
  100%{
    fill: #E6E6E6;
  }
}

</style>
<g id="undraw_publish_post_vowb 1">
<path id="Vector" d="M42.8748 428.849C66.5539 428.849 85.7496 427.14 85.7496 425.031C85.7496 422.923 66.5539 421.214 42.8748 421.214C19.1957 421.214 0 422.923 0 425.031C0 427.14 19.1957 428.849 42.8748 428.849Z" fill="#E6E6E6"/>
<path id="Vector_2" d="M135.362 436C159.041 436 178.237 434.291 178.237 432.182C178.237 430.074 159.041 428.364 135.362 428.364C111.683 428.364 92.4871 430.074 92.4871 432.182C92.4871 434.291 111.683 436 135.362 436Z" fill="#E6E6E6"/>
<path id="Vector_3" d="M461.378 0H245.028C243.767 0.00179396 242.557 0.587673 241.665 1.62913C240.773 2.67059 240.271 4.0826 240.27 5.55544V428.509C240.27 429.982 240.772 431.395 241.664 432.437C242.556 433.479 243.766 434.064 245.028 434.065H461.378C462.511 434.066 463.607 433.594 464.468 432.734C465.329 431.874 465.899 430.683 466.073 429.376C466.117 429.09 466.138 428.8 466.137 428.509V5.55544C466.135 4.0826 465.633 2.67059 464.741 1.62913C463.849 0.587673 462.64 0.00179207 461.378 0ZM464.233 428.509C464.233 429.393 463.932 430.241 463.397 430.866C462.862 431.491 462.135 431.842 461.378 431.843H245.028C244.271 431.842 243.545 431.491 243.009 430.866C242.474 430.241 242.173 429.393 242.173 428.509V5.55544C242.174 4.67181 242.475 3.82475 243.011 3.19993C243.546 2.57511 244.271 2.2235 245.028 2.22217H461.378C462.135 2.2235 462.861 2.57511 463.396 3.19993C463.931 3.82475 464.232 4.67181 464.233 5.55544V428.509Z" fill="#FFB900"/>
<path id="Vector_4" d="M262.159 31.1994C261.654 31.2 261.17 31.4343 260.813 31.8509C260.456 32.2675 260.256 32.8324 260.255 33.4215V125.271C260.256 125.861 260.456 126.425 260.813 126.842C261.17 127.259 261.654 127.493 262.159 127.494H444.248C444.752 127.493 445.236 127.259 445.593 126.842C445.95 126.425 446.151 125.861 446.151 125.271V33.4215C446.151 32.8324 445.95 32.2675 445.593 31.8509C445.236 31.4343 444.752 31.2 444.248 31.1993L262.159 31.1994Z" fill="#E6E6E6"/>
<path id="Vector_5" d="M150.406 303.422C149.97 308.226 138.408 312.478 123.788 315.123C120.012 315.806 110.735 289.127 106.69 289.577C101.826 290.119 102.166 317.736 97.3556 317.884C80.9802 318.389 70.398 316.43 66.9771 310.762C65.1263 310.238 62.8944 308.999 62.9829 306.79C63.0441 305.527 63.9015 304.407 63.8947 303.168C63.8947 301.007 69.2633 277.349 72.4274 266.124C73.2167 263.336 73.7882 260.476 74.6796 257.719C78.5309 245.295 80.1844 235.762 87.2201 225.419C88.2966 223.968 89.1819 222.337 89.8466 220.581C90.4505 218.473 90.7651 216.266 90.7788 214.043L91.1667 206.266C101.598 205.694 111.73 205.924 121.936 208.498C122.49 208.479 123.028 208.717 123.431 209.161C123.834 209.605 124.07 210.217 124.086 210.864L124.086 210.881C124.481 213.725 124.758 216.582 124.916 219.453C124.921 220.087 124.999 220.718 125.148 221.328C125.416 222.099 125.788 222.815 126.25 223.449C132.156 232.489 135.776 243.309 138.634 254.145C141.492 264.98 143.765 276.118 147.357 286.715C148.596 290.37 150.215 294.477 150.542 298.393C151.835 299.513 151.549 302.047 150.406 303.422Z" fill="#2F2E41"/>
<path id="Vector_6" d="M109.817 121.169C109.817 121.169 105.735 145.001 100.972 148.973C96.2088 152.945 126.828 157.711 126.828 157.711C126.828 157.711 127.509 138.646 135.674 129.907C143.839 121.169 109.817 121.169 109.817 121.169Z" fill="#EFB7B9"/>
<path id="Vector_7" d="M125.808 139.043C137.082 139.043 146.221 128.373 146.221 115.211C146.221 102.048 137.082 91.3784 125.808 91.3784C114.534 91.3784 105.395 102.048 105.395 115.211C105.395 128.373 114.534 139.043 125.808 139.043Z" fill="#EFB7B9"/>
<path id="Vector_8" d="M133.973 183.8C127.836 192.248 126.539 203.041 125.284 213.693C119.119 211.255 112.287 215.346 105.905 213.852C102.699 212.606 99.308 212.147 95.9433 212.502C93.5822 212.24 91.2415 210.508 88.9893 211.39C85.245 214.159 88.8912 197.007 88.6688 192.022C86.7064 107.932 145.126 148.84 133.973 183.8Z" fill="#E6E6E6"/>
<path id="Vector_9" opacity="0.1" d="M131.932 184.594L131.884 184.697C130.707 187.248 128.945 189.392 127.733 191.935C126.373 194.81 125.74 198.091 125.195 201.324C124.819 203.496 124.472 205.67 124.154 207.847C121.711 206.21 119.348 204.415 117.078 202.468C112.199 198.091 108.423 192.284 104.912 186.382C102.19 181.861 99.6041 177.119 98.495 171.772C97.3859 166.426 98.0323 160.277 101.217 156.242C102.569 154.46 104.423 153.302 106.443 152.977C112.131 152.27 115.724 154.836 119.616 159.721C123.508 164.607 125.917 170.843 128.4 176.833C129.503 179.431 130.632 182.092 131.932 184.594Z" fill="black"/>
<g id="arms">
<path id="Vector_10" d="M160.32 173.155C162.116 171.383 163.912 169.604 165.559 167.649C167.883 164.774 170.029 161.711 171.982 158.482C174.065 155.169 176.133 151.777 177.426 147.948C178.889 143.563 179.338 138.574 181.883 134.936C182.171 134.463 182.57 134.099 183.033 133.887C184.482 133.355 185.564 135.476 185.843 137.232C187.204 145.827 183.958 154.407 180.801 162.335C179.76 164.948 178.671 167.634 176.868 169.612C175.879 170.599 174.845 171.524 173.772 172.384C172.178 173.897 170.711 175.583 169.39 177.421C167.122 180.429 164.965 183.546 162.919 186.771C160.381 190.743 157.999 194.906 154.992 198.409C151.984 201.912 148.221 204.764 144.01 205.455C145.214 205.265 144.819 197.011 144.69 195.97C144.506 194.461 143.622 192.681 143.595 191.204C143.56 189.392 144.193 189.13 145.473 187.859L160.32 173.155Z" fill="#EFB7B9"/>
<path id="Vector_11" d="M137.253 215.806C138.262 216.176 139.319 216.337 140.376 216.283C143.949 216.238 147.469 215.281 150.691 213.479C150.993 213.342 151.26 213.118 151.467 212.827C151.587 212.523 151.652 212.193 151.658 211.858C151.664 211.523 151.611 211.191 151.501 210.881C149.582 201.825 153.284 191.553 149.61 183.275C145.615 184.793 141.233 186.453 137.239 187.931C136.627 188.221 135.967 188.351 135.307 188.312C134.516 188.12 133.791 187.658 133.225 186.985C128.897 182.616 126.168 176.531 123.698 170.517C121.228 164.503 118.806 158.299 114.914 153.406C111.022 148.512 107.382 145.922 101.693 146.629C99.6739 146.952 97.8202 148.107 96.4673 149.886C93.2556 153.922 92.616 160.063 93.7455 165.417C94.8751 170.771 97.4675 175.514 100.162 180.034C103.673 185.929 107.45 191.736 112.328 196.113C114.968 198.345 117.707 200.41 120.534 202.301" fill="#E6E6E6"/>
<path id="Vector_12" d="M168.485 176.332C170.281 174.561 172.078 172.781 173.724 170.827C176.048 167.952 178.194 164.888 180.148 161.66C182.23 158.347 184.298 154.955 185.591 151.126C187.054 146.741 187.503 141.752 190.048 138.113C190.336 137.641 190.735 137.276 191.198 137.065C192.647 136.532 193.729 138.654 194.008 140.409C195.369 149.005 192.123 157.584 188.966 165.513C187.925 168.126 186.836 170.811 185.033 172.789C184.044 173.777 183.01 174.702 181.937 175.562C180.343 177.075 178.876 178.761 177.555 180.598C175.287 183.606 173.13 186.723 171.084 189.948C168.546 193.921 166.165 198.083 163.157 201.587C160.15 205.09 156.387 207.942 152.175 208.633C153.379 208.442 152.985 200.188 152.855 199.148C152.672 197.638 151.787 195.859 151.76 194.381C151.726 192.57 152.359 192.308 153.638 191.037L168.485 176.332Z" fill="#EFB7B9"/>
<path id="Vector_13" d="M109.858 149.807C107.839 150.129 105.985 151.285 104.633 153.064C101.421 157.1 100.781 163.241 101.911 168.595C103.04 173.949 105.633 178.692 108.327 183.212C111.838 189.106 115.615 194.914 120.494 199.291C123.133 201.522 125.872 203.588 128.7 205.479C133.398 208.858 137.914 207.806 142.22 211.834C143.164 212.832 144.245 213.638 145.418 214.218C146.428 214.587 147.484 214.748 148.541 214.694C152.114 214.649 155.635 212.103 158.857 210.301C159.159 210.165 159.426 209.941 159.632 209.65C159.753 209.346 159.818 209.016 159.824 208.681C159.83 208.346 159.776 208.013 159.667 207.703C157.748 198.647 161.449 194.731 157.775 186.453C153.781 187.97 149.399 189.631 145.405 191.108C144.792 191.399 144.132 191.529 143.472 191.49C142.681 191.298 141.956 190.836 141.39 190.163C137.062 185.794 134.334 179.709 131.864 173.695C129.394 167.681 126.971 161.477 123.079 156.583C119.187 151.69 115.547 149.1 109.858 149.807Z" fill="#E6E6E6"/>
</g>
<g id="legs">
<path id="Vector_14" d="M96.3808 309.864C96.5622 316.507 92.8846 322.366 89.4428 327.631C87.8728 330.098 73.3286 346.783 68.9188 354.09C67.8508 355.862 41.6989 390.557 40.3478 393.78C40.0299 394.543 39.7668 395.336 39.561 396.149C38.7621 399.242 38.703 402.578 38.7463 405.883L38.7289 408.195C38.8271 413.24 38.9864 418.31 39.9771 423.203C40.1214 423.919 40.2861 424.643 40.3691 425.367C40.0959 425.154 39.8383 424.916 39.5988 424.654L25.6193 412.354L24.7473 411.585C23.8719 408.544 23.0444 405.471 22.1075 402.469C21.5493 400.686 22.1769 398.657 23.1951 397.179C24.2967 395.781 25.5092 394.507 26.8165 393.377C27.8225 392.179 28.7216 390.866 29.4997 389.456C39.3332 373.03 67.1238 314.03 69.2069 302.129C71.8394 301.577 74.5325 301.557 77.1687 302.069L91.1894 304.352C92.705 304.601 94.3627 304.939 95.3392 306.305C96.0052 307.329 96.3705 308.577 96.3808 309.864Z" fill="#EFB7B9"/>
<path id="Vector_15" d="M156.546 322.561C156.247 325.037 155.498 327.41 154.348 329.52C152.906 332.086 136.337 381.84 131.186 402.383C130.24 406.157 130.737 409.803 130.635 411.066C130.553 412.115 130.478 413.164 130.41 414.204C130.315 415.499 130.24 416.794 130.159 418.081C129.948 421.489 129.764 425.072 130.995 428.17C131.479 429.393 132.207 430.45 132.526 431.673C132.046 431.385 131.602 431.021 131.206 430.593L117.135 418.399C115.988 414.603 115.102 410.706 114.488 406.745C114.134 404.496 113.964 401.915 115.168 400.191C115.238 400.085 115.313 399.984 115.393 399.889C115.786 399.459 116.225 399.09 116.699 398.793C117.135 398.514 117.553 398.201 117.951 397.855C118.25 397.582 118.52 397.267 118.754 396.918C119.911 395.25 120.326 392.906 120.673 390.706C122.034 381.697 133.561 326.422 133.343 325.056C133.105 323.713 126.559 310.836 122.068 307.976C126.728 303.419 132.043 299.863 137.766 297.474C138.774 296.925 139.891 296.703 140.998 296.83C141.59 296.983 142.156 297.251 142.672 297.625C145.754 299.643 148.115 302.82 150.374 305.998C153.743 310.78 157.111 316.405 156.546 322.561Z" fill="#EFB7B9"/>
<path id="Vector_16" d="M138.283 431.959C137.373 433.039 136.19 433.748 134.909 433.983C133.627 434.217 132.315 433.965 131.166 433.262C130.685 432.973 130.241 432.61 129.846 432.182L115.774 419.987L110.194 415.149C109.608 414.512 109.138 413.742 108.814 412.886C108.49 412.03 108.319 411.106 108.31 410.171C108.302 409.235 108.457 408.307 108.766 407.444C109.074 406.58 109.53 405.799 110.106 405.148L113.808 401.78L115.339 400.381L117.393 398.507L119.19 396.87L130.716 404.417L130.914 404.862L139.637 424.5C140.044 425.764 140.134 427.138 139.894 428.46C139.654 429.782 139.095 430.996 138.283 431.959Z" fill="#2F2E41"/>
<path id="Vector_17" d="M46.6649 426.074C45.747 427.146 44.5587 427.847 43.2754 428.072C41.9921 428.297 40.6817 428.034 39.5379 427.323C39.3551 427.21 39.1723 427.082 38.9964 426.945C38.7231 426.733 38.4655 426.495 38.226 426.233L24.2465 413.933L23.3745 413.164L18.7034 409.053C18.1213 408.412 17.6574 407.638 17.3399 406.78C17.0224 405.922 16.8581 404.997 16.8568 404.061C16.8556 403.125 17.0175 402.198 17.3326 401.337C17.6478 400.476 18.1096 399.698 18.69 399.051L22.4168 395.711L23.9582 394.324L26.0272 392.465L27.8358 390.842L28.1269 391.035L38.1883 397.728L39.3054 398.475L39.4994 398.922L48.0749 418.624C48.4729 419.892 48.5516 421.267 48.3018 422.587C48.0519 423.907 47.4839 425.117 46.6649 426.074Z" fill="#2F2E41"/>
</g>
<path id="Vector_18" d="M145.028 94.8951C137.123 84.4394 128.211 79.4387 117.525 84.0301C100.38 77.3116 77.8432 123.484 91.7205 140.229L115.223 142.517L122.419 127.388L119.872 143.058L138.671 145.249C129.081 127.841 132.157 111.107 145.028 94.8951Z" fill="#2F2E41"/>
<g id="card">
<path id="Vector_19" d="M197.837 99C197.35 99.0006 196.883 99.2268 196.539 99.629C196.194 100.031 196.001 100.576 196 101.145V189.816C196.001 190.385 196.194 190.93 196.539 191.332C196.883 191.734 197.35 191.961 197.837 191.961H373.624C374.111 191.961 374.578 191.734 374.923 191.332C375.267 190.93 375.461 190.385 375.462 189.816V101.145C375.461 100.576 375.267 100.031 374.923 99.629C374.578 99.2268 374.111 99.0006 373.624 99H197.837Z" fill="#FF7500"/>
<path id="Vector_20" d="M245.303 166.305C255.154 166.305 263.139 156.981 263.139 145.481C263.139 133.98 255.154 124.656 245.303 124.656C235.452 124.656 227.466 133.98 227.466 145.481C227.466 156.981 235.452 166.305 245.303 166.305Z" fill="white"/>
<path id="Path 40" d="M285.559 142.71C285.012 142.72 284.49 142.981 284.107 143.437C283.723 143.892 283.508 144.506 283.508 145.145C283.508 145.784 283.723 146.397 284.107 146.852C284.49 147.308 285.012 147.569 285.559 147.579H341.876C342.429 147.59 342.963 147.344 343.36 146.895C343.758 146.445 343.986 145.83 343.995 145.185C344.005 144.539 343.794 143.915 343.409 143.451C343.024 142.987 342.497 142.721 341.944 142.71C341.921 142.709 341.899 142.709 341.876 142.71H285.559Z" fill="white"/>
<path id="Path 40_2" d="M285.559 128.603C285.012 128.614 284.49 128.875 284.107 129.33C283.723 129.786 283.508 130.399 283.508 131.038C283.508 131.677 283.723 132.29 284.107 132.746C284.49 133.201 285.012 133.462 285.559 133.473H313.682C314.235 133.483 314.769 133.236 315.166 132.787C315.563 132.338 315.791 131.723 315.8 131.078C315.809 130.433 315.599 129.809 315.214 129.345C314.83 128.881 314.304 128.614 313.751 128.603C313.728 128.603 313.705 128.603 313.682 128.603H285.559Z" fill="white"/>
<path id="Path 40_3" d="M285.559 157.488C285.012 157.499 284.49 157.76 284.107 158.215C283.723 158.671 283.508 159.284 283.508 159.923C283.508 160.562 283.723 161.175 284.107 161.631C284.49 162.086 285.012 162.347 285.559 162.358H341.876C342.15 162.363 342.422 162.306 342.677 162.188C342.932 162.071 343.164 161.896 343.361 161.674C343.558 161.451 343.716 161.186 343.825 160.892C343.934 160.599 343.993 160.283 343.997 159.963C344.002 159.643 343.952 159.325 343.851 159.028C343.751 158.73 343.601 158.459 343.41 158.229C343.219 157.999 342.992 157.816 342.74 157.688C342.489 157.561 342.218 157.493 341.944 157.488C341.921 157.488 341.899 157.488 341.876 157.488H285.559Z" fill="white"/>
</g>
<g id="lines">
<path id="Vector_21" d="M290.896 230.454C293.349 230.454 295.337 228.133 295.337 225.269C295.337 222.406 293.349 220.084 290.896 220.084C288.443 220.084 286.455 222.406 286.455 225.269C286.455 228.133 288.443 230.454 290.896 230.454Z"/>
<path id="Path 40_4" d="M309.199 222.584C308.596 222.596 308.021 222.885 307.598 223.387C307.175 223.889 306.938 224.565 306.938 225.269C306.938 225.974 307.175 226.65 307.598 227.152C308.021 227.654 308.596 227.942 309.199 227.954H363.406H417.614C418.222 227.963 418.808 227.69 419.245 227.195C419.681 226.7 419.931 226.023 419.941 225.313C419.951 224.603 419.72 223.917 419.298 223.406C418.876 222.895 418.297 222.599 417.689 222.584C417.664 222.584 417.639 222.584 417.614 222.584H309.199Z"/>
<path id="Vector_22" d="M290.896 255.639C293.349 255.639 295.337 253.318 295.337 250.454C295.337 247.59 293.349 245.269 290.896 245.269C288.443 245.269 286.455 247.59 286.455 250.454C286.455 253.318 288.443 255.639 290.896 255.639Z"/>
<path id="Path 40_5" d="M309.199 247.769C308.596 247.781 308.021 248.069 307.598 248.571C307.175 249.073 306.938 249.749 306.938 250.454C306.938 251.158 307.175 251.834 307.598 252.336C308.021 252.839 308.596 253.127 309.199 253.139H417.614C418.222 253.147 418.809 252.874 419.245 252.38C419.681 251.885 419.932 251.208 419.942 250.498C419.952 249.787 419.721 249.102 419.298 248.59C418.876 248.079 418.297 247.783 417.689 247.769C417.664 247.769 417.639 247.769 417.614 247.769H309.199Z"/>
<path id="Vector_23" d="M290.896 280.824C293.349 280.824 295.337 278.502 295.337 275.638C295.337 272.775 293.349 270.453 290.896 270.453C288.443 270.453 286.455 272.775 286.455 275.638C286.455 278.502 288.443 280.824 290.896 280.824Z"/>
<path id="Path 40_6" d="M309.199 272.954C308.596 272.966 308.021 273.254 307.598 273.756C307.175 274.258 306.938 274.934 306.938 275.638C306.938 276.343 307.175 277.019 307.598 277.521C308.021 278.023 308.596 278.311 309.199 278.323H417.614C418.222 278.332 418.809 278.059 419.245 277.564C419.681 277.069 419.932 276.393 419.942 275.682C419.952 274.972 419.721 274.286 419.298 273.775C418.876 273.263 418.297 272.968 417.689 272.954C417.664 272.953 417.639 272.953 417.614 272.954H309.199Z"/>
<path id="Vector_24" d="M290.896 306.008C293.349 306.008 295.337 303.687 295.337 300.823C295.337 297.96 293.349 295.638 290.896 295.638C288.443 295.638 286.455 297.96 286.455 300.823C286.455 303.687 288.443 306.008 290.896 306.008Z"/>
<path id="Path 40_7" d="M309.199 298.138C308.596 298.15 308.021 298.438 307.598 298.941C307.175 299.443 306.938 300.119 306.938 300.823C306.938 301.527 307.175 302.203 307.598 302.706C308.021 303.208 308.596 303.496 309.199 303.508H417.614C417.916 303.515 418.218 303.453 418.5 303.324C418.782 303.195 419.039 303.002 419.257 302.757C419.475 302.512 419.65 302.218 419.77 301.894C419.891 301.57 419.956 301.221 419.961 300.867C419.966 300.514 419.911 300.163 419.799 299.834C419.688 299.505 419.522 299.206 419.311 298.952C419.1 298.698 418.848 298.496 418.569 298.356C418.291 298.217 417.992 298.143 417.689 298.138C417.664 298.138 417.639 298.138 417.614 298.138H309.199Z"/>
<path id="Vector_25" d="M290.896 331.193C293.349 331.193 295.337 328.871 295.337 326.008C295.337 323.144 293.349 320.823 290.896 320.823C288.443 320.823 286.455 323.144 286.455 326.008C286.455 328.871 288.443 331.193 290.896 331.193Z"/>
<path id="Path 40_8" d="M309.199 323.323C308.596 323.335 308.021 323.623 307.598 324.125C307.175 324.627 306.938 325.303 306.938 326.008C306.938 326.712 307.175 327.388 307.598 327.89C308.021 328.392 308.596 328.681 309.199 328.693H417.614C418.222 328.701 418.808 328.428 419.245 327.933C419.681 327.438 419.931 326.762 419.941 326.052C419.951 325.342 419.72 324.656 419.298 324.144C418.876 323.633 418.297 323.338 417.689 323.323C417.664 323.323 417.639 323.323 417.614 323.323H309.199Z"/>
<path id="Vector_26" d="M290.896 356.377C293.349 356.377 295.337 354.056 295.337 351.192C295.337 348.329 293.349 346.007 290.896 346.007C288.443 346.007 286.455 348.329 286.455 351.192C286.455 354.056 288.443 356.377 290.896 356.377Z"/>
<path id="Path 40_9" d="M309.199 348.508C308.596 348.52 308.021 348.808 307.598 349.31C307.175 349.812 306.938 350.488 306.938 351.192C306.938 351.897 307.175 352.573 307.598 353.075C308.021 353.577 308.596 353.865 309.199 353.877H417.614C418.222 353.886 418.808 353.613 419.245 353.118C419.681 352.623 419.931 351.946 419.941 351.236C419.951 350.526 419.72 349.84 419.298 349.329C418.876 348.818 418.297 348.522 417.689 348.508C417.664 348.507 417.639 348.507 417.614 348.508H309.199Z"/>
<path id="Vector_27" d="M290.896 381.562C293.349 381.562 295.337 379.241 295.337 376.377C295.337 373.513 293.349 371.192 290.896 371.192C288.443 371.192 286.455 373.513 286.455 376.377C286.455 379.241 288.443 381.562 290.896 381.562Z"/>
<path id="Path 40_10" d="M309.199 373.692C308.596 373.704 308.021 373.992 307.598 374.494C307.175 374.997 306.938 375.673 306.938 376.377C306.938 377.081 307.175 377.757 307.598 378.26C308.021 378.762 308.596 379.05 309.199 379.062H417.614C418.222 379.071 418.809 378.798 419.245 378.303C419.681 377.808 419.932 377.131 419.942 376.421C419.952 375.711 419.721 375.025 419.298 374.513C418.876 374.002 418.297 373.707 417.689 373.692C417.664 373.692 417.639 373.692 417.614 373.692H309.199Z"/>
</g>
<path id="Vector_28" d="M501 339.393C500.905 342.126 498.538 398.547 466.073 429.376C464.715 430.665 463.305 431.907 461.841 433.102L460.737 431.842H461.378C462.135 431.842 462.861 431.491 463.397 430.866C463.932 430.241 464.233 429.393 464.233 428.509V317.297C464.912 313.03 465.553 308.838 466.137 304.756C469.302 282.572 470.768 263.831 468.395 256.046C469.423 259.054 490.056 320.563 478.851 383.236C489.948 365.496 500.48 346.874 501 339.393Z"/>
</g>
</svg>
