<svg width="407" height="400" viewBox="0 0 407 400" fill="none" xmlns="http://www.w3.org/2000/svg">
<style>
#armleft{
  animation: feeding 12s infinite;
  transform-origin: top;
  transform-box: fill-box;
}
#handleft{
  animation: handmoving 12s infinite;
  transform-origin: top;
}

@keyframes feeding {
  0%{
    transform: rotateX(-10deg);

  }
  25% {
    transform: rotateX(115deg)

  }
  50%{
    transform: rotateX(-10deg);

  }
  100%{
    transform: rotateX(-10deg);

  }
}
@keyframes handmoving {
  0%{
    transform: rotateX(-6deg);
  }
  25%{
    transform: rotateX(59deg)

  }
  50% {
    transform: rotateX(-6deg);

  }
  100% {
    transform: rotateX(-6deg);
  }
}
</style>
<g id="homecinema" clip-path="url(#clip0)">
<path id="Vector" d="M378.162 106.271V83.8123H374.769V106.271C373.796 106.676 372.99 107.417 372.489 108.367C371.988 109.317 371.824 110.416 372.025 111.477C372.225 112.538 372.778 113.493 373.588 114.181C374.398 114.868 375.415 115.244 376.465 115.244C377.515 115.244 378.532 114.868 379.342 114.181C380.152 113.493 380.705 112.538 380.906 111.477C381.106 110.416 380.942 109.317 380.441 108.367C379.941 107.417 379.135 106.676 378.162 106.271Z" fill="#E6E6E6"/>
<path id="Vector_2" d="M386.078 332.921H362.894V43.0702H353.847V332.921H330.663C327.915 332.921 325.195 333.478 322.657 334.56C320.118 335.643 317.812 337.229 315.869 339.229C313.926 341.228 312.385 343.602 311.334 346.215C310.282 348.828 309.741 351.628 309.741 354.456V354.456H407V354.456C407 351.628 406.459 348.828 405.407 346.215C404.356 343.602 402.815 341.228 400.872 339.229C398.929 337.229 396.623 335.643 394.084 334.56C391.546 333.478 388.825 332.921 386.078 332.921Z" fill="#E6E6E6"/>
<path id="Vector_3" d="M309.788 86.1404H406.953L401.011 9.69642C400.794 7.06048 399.626 4.60361 397.738 2.80917C395.85 1.01473 393.377 0.0126243 390.807 0H325.934C323.364 0.0126257 320.891 1.01473 319.003 2.80917C317.115 4.60361 315.947 7.06048 315.73 9.69642L309.788 86.1404Z" fill="#47228D"/>
<path id="Vector_4" d="M34.5482 266.299H331.119V235.134C331.119 150.973 264.598 82.5027 182.834 82.5027C101.069 82.5027 34.5482 150.973 34.5482 235.134V266.299Z" fill="#FF8100"/>
<path id="Vector_5" opacity="0.2" d="M34.5482 266.299H331.119V235.134C331.119 150.973 264.598 82.5027 182.834 82.5027C101.069 82.5027 34.5482 150.973 34.5482 235.134V266.299Z" fill="#FF4600"/>
<path id="Vector_6" d="M72.985 277.087H301.222C301.006 264.728 296.087 252.949 287.523 244.282C278.959 235.615 267.434 230.753 255.424 230.739H118.784C106.774 230.753 95.2486 235.615 86.6847 244.282C78.1209 252.949 73.2019 264.728 72.985 277.087Z" fill="#E6E6E6"/>
<path id="Vector_7" d="M45.8055 272.293C71.1032 272.293 91.611 251.184 91.611 225.145C91.611 199.106 71.1032 177.997 45.8055 177.997C20.5078 177.997 0 199.106 0 225.145C0 251.184 20.5078 272.293 45.8055 272.293Z" fill="#FF8100"/>
<path id="Vector_8" d="M323.744 272.293C349.042 272.293 369.549 251.184 369.549 225.145C369.549 199.106 349.042 177.997 323.744 177.997C298.446 177.997 277.938 199.106 277.938 225.145C277.938 251.184 298.446 272.293 323.744 272.293Z" fill="#FF8100"/>
<path id="Vector_9" d="M289.196 249.118V266.699H77.6364V249.118H30.2782V334.806C30.2782 340.056 32.3044 345.091 35.9111 348.804C39.5177 352.516 44.4094 354.602 49.51 354.602H317.322C319.848 354.602 322.348 354.09 324.682 353.095C327.015 352.1 329.135 350.642 330.921 348.804C332.707 346.966 334.123 344.783 335.09 342.382C336.056 339.98 336.554 337.406 336.554 334.806V249.118H289.196Z" fill="#FF7500"/>
<path id="Vector_10" opacity="0.2" d="M45.8055 234.734C50.9508 234.734 55.1219 230.441 55.1219 225.145C55.1219 219.849 50.9508 215.555 45.8055 215.555C40.6602 215.555 36.4891 219.849 36.4891 225.145C36.4891 230.441 40.6602 234.734 45.8055 234.734Z" fill="black"/>
<path id="Vector_11" opacity="0.2" d="M323.744 234.734C328.889 234.734 333.06 230.441 333.06 225.145C333.06 219.849 328.889 215.555 323.744 215.555C318.599 215.555 314.427 219.849 314.427 225.145C314.427 230.441 318.599 234.734 323.744 234.734Z" fill="black"/>
<path id="Vector_12" d="M199.708 77.1169C199.708 77.1169 200.623 95.0287 207.035 98.7996C213.446 102.57 207.035 128.024 207.035 128.024L176.81 128.967L174.979 98.7996C174.979 98.7996 178.642 86.5442 176.81 80.8878C174.979 75.2315 199.708 77.1169 199.708 77.1169Z" fill="#FFB8B8"/>
<path id="Vector_13" d="M233.595 325.996L222.605 339.194L240.007 356.163L249.165 337.309L233.595 325.996Z" fill="#FFB8B8"/>
<path id="Vector_14" d="M155.745 325.996L166.736 339.194L149.334 356.163L140.175 337.309L155.745 325.996Z" fill="#FFB8B8"/>
<path id="Vector_15" d="M227.642 201.085C227.642 201.085 293.586 223.711 289.922 245.393C286.259 267.076 257.866 343.437 257.866 343.437C257.866 343.437 242.296 343.437 230.39 326.467L238.633 307.613C238.633 307.613 234.969 297.243 241.38 295.358C247.791 293.472 251.455 260.477 251.455 260.477C251.455 260.477 204.745 256.706 194.67 238.794L176.353 193.543L227.642 201.085Z" fill="#2F2E41"/>
<path id="Vector_16" d="M161.698 201.085C161.698 201.085 95.7547 223.711 99.4183 245.393C103.082 267.076 131.474 343.437 131.474 343.437C131.474 343.437 147.044 343.437 158.951 326.467L150.708 307.613C150.708 307.613 154.371 297.243 147.96 295.358C141.549 293.472 137.885 260.477 137.885 260.477C137.885 260.477 184.595 256.706 194.67 238.794L212.988 193.543L161.698 201.085Z" fill="#2F2E41"/>
<path id="Vector_17" d="M236.801 349.093C236.801 349.093 245.96 340.608 246.876 347.207C247.791 353.807 245.96 380.203 245.96 380.203C245.96 380.203 255.119 400 241.38 400C227.642 400 221.231 384.916 223.063 369.833C224.894 354.749 216.651 349.093 216.651 349.093C216.651 349.093 206.577 328.353 216.651 326.468C226.726 324.582 230.39 329.296 230.39 329.296C230.39 329.296 226.726 346.265 236.801 349.093Z" fill="#47228D"/>
<path id="foot" d="M152.892 348.94C152.892 348.94 143.95 340.228 142.868 346.802C141.786 353.376 142.953 379.81 142.953 379.81C142.953 379.81 133.298 399.37 147.032 399.716C160.766 400.062 167.555 385.144 166.104 370.019C164.652 354.895 173.035 349.448 173.035 349.448C173.035 349.448 183.629 328.968 173.605 326.829C163.58 324.691 159.799 329.311 159.799 329.311C159.799 329.311 163.035 346.367 152.892 348.94Z" fill="#47228D"/>
<path id="Vector_18" d="M185.511 87.9582C197.145 87.9582 206.577 78.2506 206.577 66.2756C206.577 54.3006 197.145 44.5929 185.511 44.5929C173.877 44.5929 164.446 54.3006 164.446 66.2756C164.446 78.2506 173.877 87.9582 185.511 87.9582Z" fill="#FFB8B8"/>
<path id="Vector_19" d="M188.717 103.513L175.895 93.1432L144.755 108.227L143.839 194.015C143.839 194.015 124.605 203.442 130.1 215.697C130.1 215.697 146.586 219.468 153.913 227.01C161.24 234.552 202.455 224.182 219.857 218.526C237.259 212.869 241.838 206.27 241.838 206.27L224.436 180.817L234.511 115.769L203.375 94.2212L188.717 103.513Z" fill="#E6E6E6"/>
<path id="Vector_20" d="M211.121 51.5178C210.663 50.8768 210.243 50.2067 209.866 49.5116C209.212 47.8742 210.244 45.9445 209.28 44.4155C208.296 42.8547 205.798 42.5255 204.098 41.4651C201.479 39.8316 201.003 36.6263 198.55 34.8262C196.782 33.5292 194.261 33.1796 191.899 33.2536C189.537 33.3275 187.206 33.7671 184.843 33.8154C181.653 33.8886 178.488 33.2224 175.583 31.8661L177.326 35.3762C175.389 34.9416 173.538 34.1694 171.853 33.093C171.082 34.0775 172.493 35.5716 171.618 36.495C171.26 36.7929 170.836 36.9953 170.383 37.0845C167.021 38.068 163.854 39.658 161.032 41.7805C160.378 42.2083 159.838 42.7957 159.458 43.4904C159.004 44.5269 159.407 45.6717 159.372 46.7738C159.31 48.7764 157.824 50.5227 156.77 52.3267C155.716 54.1308 155.147 56.4696 156.71 58.0007C157.091 58.3118 157.455 58.6427 157.803 58.9921C159.369 60.8938 156.597 63.6786 157.933 65.6966C158.513 66.5727 159.702 67.0161 160.736 67.5337C162.716 68.4865 164.381 70.0146 165.528 71.9297L164.724 65.8601C164.682 65.7101 164.675 65.5521 164.702 65.3985C164.73 65.245 164.792 65.1003 164.884 64.976C165.273 64.5678 166.088 64.7305 166.625 64.4602C167.216 64.1627 167.261 63.4804 167.238 62.9089L167.057 58.5023C166.975 56.5207 166.953 56.2575 168.371 54.6581C169.361 53.5406 170.919 52.8664 172.485 52.3706C176.061 51.2375 179.908 50.8455 183.711 50.4625C188.126 50.0177 193.098 47.8124 196.528 50.1539C199.335 52.0706 200.268 55.2212 201.621 58.0154C202.836 60.5268 205.956 67.9215 208.554 63.9187C210.185 61.4049 212.68 54.3167 211.121 51.5178Z" fill="#47228D"/>
<path id="Vector_21" d="M189.128 59.9857C189.041 59.9858 188.958 60.0213 188.896 60.0844C188.835 60.1476 188.8 60.2332 188.8 60.3225V69.4005C188.8 69.4898 188.835 69.5754 188.896 69.6386C188.958 69.7017 189.041 69.7372 189.128 69.7373H204.31C204.397 69.7372 204.48 69.7017 204.541 69.6386C204.603 69.5754 204.637 69.4898 204.638 69.4005V60.3225C204.637 60.2332 204.603 60.1476 204.541 60.0844C204.48 60.0213 204.397 59.9858 204.31 59.9857L189.128 59.9857Z" fill="#3F3D56"/>
<path id="Vector_22" d="M190.824 60.7863C190.663 60.7865 190.508 60.8527 190.393 60.9704C190.279 61.0881 190.215 61.2477 190.214 61.4141V68.3089C190.215 68.4754 190.279 68.635 190.393 68.7526C190.508 68.8703 190.663 68.9365 190.824 68.9367H202.613C202.775 68.9365 202.93 68.8703 203.044 68.7526C203.159 68.635 203.223 68.4754 203.223 68.3089V61.4141C203.223 61.2477 203.159 61.0881 203.044 60.9704C202.93 60.8527 202.775 60.7865 202.613 60.7863H190.824Z" fill="#FF6584"/>
<path id="Vector_23" d="M189.298 62.976H181.39V64.8615H189.298V62.976Z" fill="#3F3D56"/>
<path id="Vector_24" d="M167.628 59.9857C167.542 59.9859 167.459 60.0214 167.397 60.0845C167.336 60.1476 167.301 60.2332 167.301 60.3225V69.4005C167.301 69.4898 167.336 69.5754 167.397 69.6385C167.459 69.7016 167.542 69.7371 167.628 69.7373H182.811C182.898 69.7371 182.981 69.7016 183.042 69.6385C183.104 69.5754 183.138 69.4898 183.138 69.4005V60.3225C183.138 60.2332 183.104 60.1476 183.042 60.0845C182.981 60.0214 182.898 59.9859 182.811 59.9857L167.628 59.9857Z" fill="#3F3D56"/>
<path id="Vector_25" d="M169.325 60.7863C169.164 60.7865 169.009 60.8526 168.894 60.9703C168.78 61.088 168.715 61.2476 168.715 61.4141V68.3089C168.715 68.4754 168.78 68.635 168.894 68.7527C169.009 68.8704 169.164 68.9366 169.325 68.9367H181.114C181.276 68.9366 181.431 68.8704 181.545 68.7527C181.66 68.635 181.724 68.4754 181.724 68.3089V61.4141C181.724 61.2476 181.66 61.088 181.545 60.9703C181.431 60.8526 181.276 60.7865 181.114 60.7863H169.325Z" fill="#6C63FF"/>
<path id="Vector_26" d="M159.329 173.299H211.917C214.016 173.299 216.03 174.158 217.514 175.686C218.999 177.214 219.833 179.287 219.833 181.448H151.413C151.413 179.287 152.247 177.214 153.731 175.686C155.216 174.158 157.229 173.299 159.329 173.299Z" fill="#3F3D56"/>
<path id="Vector_27" d="M215.592 172.717C215.284 172.719 214.979 172.772 214.688 172.876C214.588 172.463 214.345 172.101 214.004 171.86C213.663 171.619 213.248 171.514 212.837 171.566C212.427 171.619 212.049 171.824 211.775 172.143C211.501 172.462 211.351 172.874 211.351 173.299C211.351 173.308 211.353 173.316 211.354 173.325C211.141 173.346 210.932 173.39 210.73 173.458C210.672 173.223 210.568 173.003 210.424 172.811C210.279 172.62 210.098 172.461 209.891 172.346C210.435 172.036 210.865 171.552 211.115 170.967C211.433 171 211.754 170.963 212.057 170.859C212.36 170.755 212.639 170.587 212.874 170.365C213.11 170.143 213.298 169.872 213.425 169.571C213.552 169.269 213.616 168.943 213.613 168.614C213.61 168.286 213.539 167.961 213.406 167.662C213.273 167.363 213.08 167.097 212.84 166.88C212.6 166.663 212.318 166.501 212.013 166.403C211.707 166.306 211.386 166.276 211.069 166.315C210.761 166.316 210.455 166.37 210.164 166.474C210.112 166.245 210.015 166.029 209.88 165.84C209.744 165.65 209.573 165.491 209.376 165.372C209.18 165.253 208.961 165.176 208.735 165.145C208.508 165.115 208.278 165.133 208.058 165.197C207.839 165.261 207.634 165.37 207.456 165.518C207.278 165.665 207.131 165.848 207.024 166.056C206.917 166.264 206.852 166.492 206.833 166.726C206.814 166.96 206.842 167.196 206.913 167.419C206.846 167.468 206.783 167.522 206.72 167.576C206.4 167.293 205.984 167.151 205.563 167.18C205.346 166.537 204.916 165.994 204.348 165.645C203.78 165.296 203.111 165.163 202.458 165.271C201.805 165.379 201.21 165.719 200.777 166.233C200.343 166.747 200.099 167.402 200.088 168.083C199.861 168.101 199.637 168.147 199.421 168.22C199.396 168.121 199.364 168.025 199.323 167.932C199.546 167.73 199.726 167.481 199.849 167.202C199.973 166.924 200.039 166.621 200.042 166.315C200.002 165.66 199.713 165.047 199.236 164.611C198.759 164.175 198.134 163.951 197.498 163.987C197.19 163.988 196.884 164.042 196.593 164.145C196.541 163.917 196.444 163.701 196.309 163.512C196.173 163.322 196.002 163.163 195.805 163.044C195.609 162.924 195.39 162.847 195.164 162.817C194.937 162.787 194.707 162.805 194.487 162.869C194.268 162.933 194.063 163.042 193.885 163.189C193.707 163.337 193.56 163.52 193.453 163.728C193.346 163.936 193.281 164.164 193.262 164.398C193.243 164.632 193.271 164.868 193.342 165.091C192.986 165.346 192.692 165.681 192.483 166.072C192.273 166.462 192.154 166.897 192.134 167.343C192.11 167.365 192.083 167.383 192.06 167.406C192.102 167.24 192.124 167.069 192.126 166.897C192.086 166.242 191.796 165.629 191.319 165.193C190.843 164.757 190.218 164.533 189.581 164.569C189.273 164.57 188.968 164.624 188.677 164.727C188.625 164.499 188.528 164.283 188.392 164.094C188.257 163.904 188.086 163.745 187.889 163.626C187.692 163.506 187.474 163.429 187.247 163.399C187.021 163.369 186.791 163.387 186.571 163.451C186.351 163.515 186.146 163.624 185.968 163.771C185.791 163.919 185.644 164.102 185.537 164.31C185.43 164.518 185.365 164.746 185.346 164.98C185.327 165.214 185.354 165.45 185.426 165.673C185.051 165.94 184.744 166.297 184.532 166.713C184.32 167.129 184.209 167.591 184.209 168.061C184.209 168.531 184.32 168.993 184.532 169.409C184.744 169.825 185.051 170.182 185.426 170.449C185.311 170.787 185.311 171.155 185.426 171.494C185.143 171.697 184.897 171.952 184.703 172.245C184.598 171.854 184.363 171.514 184.04 171.282C183.717 171.05 183.325 170.943 182.932 170.978C182.54 171.013 182.171 171.188 181.891 171.473C181.611 171.758 181.437 172.136 181.399 172.539C181.173 172.403 180.928 172.301 180.672 172.237C181.13 171.926 181.491 171.485 181.711 170.967C182.029 171 182.35 170.963 182.653 170.859C182.956 170.755 183.235 170.587 183.47 170.365C183.706 170.143 183.894 169.872 184.021 169.571C184.148 169.269 184.212 168.943 184.209 168.614C184.206 168.286 184.135 167.961 184.002 167.662C183.869 167.363 183.676 167.097 183.436 166.88C183.196 166.663 182.914 166.501 182.609 166.403C182.303 166.306 181.982 166.276 181.665 166.315C181.357 166.316 181.051 166.37 180.76 166.474C180.708 166.245 180.611 166.029 180.476 165.84C180.341 165.65 180.169 165.491 179.972 165.372C179.776 165.253 179.557 165.176 179.331 165.145C179.104 165.115 178.874 165.133 178.654 165.197C178.435 165.261 178.23 165.37 178.052 165.518C177.874 165.665 177.728 165.848 177.621 166.056C177.514 166.264 177.449 166.492 177.429 166.726C177.41 166.96 177.438 167.196 177.51 167.419C177.473 167.445 177.441 167.476 177.406 167.503C177.317 167.495 177.232 167.479 177.141 167.479C176.833 167.48 176.528 167.534 176.237 167.638C176.226 167.594 176.208 167.553 176.195 167.51C176.249 167.251 176.245 166.983 176.182 166.726C176.119 166.468 175.998 166.23 175.831 166.029C175.663 165.828 175.452 165.669 175.215 165.566C174.977 165.463 174.72 165.418 174.463 165.434C174.316 165.012 174.076 164.631 173.761 164.32C173.447 164.009 173.068 163.778 172.652 163.643C172.236 163.509 171.796 163.475 171.366 163.545C170.935 163.614 170.526 163.785 170.171 164.045C169.816 164.304 169.523 164.645 169.317 165.039C169.111 165.434 168.996 165.873 168.982 166.321C168.967 166.77 169.054 167.215 169.235 167.623C169.416 168.031 169.686 168.391 170.024 168.673C169.829 168.696 169.637 168.739 169.451 168.802C169.384 168.518 169.249 168.256 169.057 168.041C168.866 167.825 168.624 167.664 168.355 167.57C168.087 167.477 167.799 167.455 167.52 167.506C167.241 167.558 166.979 167.682 166.759 167.865C166.507 167.557 166.191 167.311 165.835 167.143C165.48 166.976 165.092 166.892 164.701 166.897C164.393 166.898 164.087 166.952 163.797 167.056C163.744 166.827 163.648 166.611 163.512 166.422C163.377 166.232 163.205 166.073 163.009 165.954C162.812 165.835 162.594 165.758 162.367 165.727C162.141 165.697 161.91 165.715 161.691 165.779C161.471 165.843 161.266 165.952 161.088 166.1C160.911 166.247 160.764 166.431 160.657 166.638C160.55 166.846 160.485 167.074 160.466 167.308C160.447 167.542 160.474 167.778 160.546 168.001C160.17 168.268 159.864 168.625 159.652 169.041C159.44 169.457 159.329 169.92 159.329 170.389C159.329 170.398 159.331 170.407 159.332 170.416C158.931 170.353 158.521 170.399 158.142 170.548C158.09 170.319 157.993 170.103 157.858 169.914C157.722 169.725 157.551 169.565 157.354 169.446C157.157 169.327 156.939 169.25 156.712 169.22C156.486 169.19 156.256 169.207 156.036 169.271C155.816 169.335 155.611 169.444 155.434 169.592C155.256 169.739 155.109 169.923 155.002 170.13C154.895 170.338 154.83 170.566 154.811 170.8C154.792 171.035 154.819 171.27 154.891 171.494C154.346 171.874 153.947 172.438 153.764 173.09C153.582 173.741 153.627 174.437 153.891 175.058C154.156 175.679 154.623 176.184 155.213 176.487C155.802 176.79 156.476 176.87 157.117 176.714C157.219 177.321 157.506 177.879 157.937 178.307C158.368 178.735 158.92 179.01 159.513 179.093C160.107 179.176 160.71 179.063 161.236 178.769C161.762 178.475 162.184 178.016 162.44 177.459C164.476 177.731 166.544 177.635 168.548 177.175C168.735 177.727 169.079 178.207 169.536 178.554C169.992 178.9 170.54 179.097 171.107 179.118C171.674 179.139 172.234 178.983 172.713 178.671C173.193 178.359 173.57 177.905 173.794 177.369C174.207 177.361 174.612 177.258 174.98 177.067C175.238 177.537 175.619 177.923 176.078 178.182C176.538 178.441 177.059 178.563 177.582 178.533C178.105 178.504 178.61 178.325 179.04 178.017C179.47 177.708 179.807 177.283 180.014 176.787C180.643 176.665 181.294 176.772 181.854 177.092C182.414 177.412 182.847 177.923 183.078 178.538C183.456 178.005 183.943 177.563 184.504 177.244C185.065 176.924 185.687 176.734 186.326 176.688C186.894 176.851 187.499 176.822 188.05 176.605C188.601 176.388 189.07 175.995 189.388 175.484C189.21 176.193 189.299 176.944 189.636 177.589C189.972 178.234 190.533 178.724 191.206 178.962C191.878 179.2 192.613 179.168 193.264 178.873C193.914 178.578 194.433 178.041 194.716 177.369C195.129 177.361 195.534 177.258 195.902 177.067C196.16 177.537 196.541 177.923 197 178.182C197.46 178.441 197.981 178.563 198.504 178.533C199.027 178.504 199.532 178.325 199.962 178.017C200.392 177.708 200.729 177.283 200.936 176.787C201.349 176.779 201.754 176.676 202.122 176.485C202.321 176.85 202.595 177.166 202.924 177.411C203.254 177.655 203.631 177.823 204.03 177.903C204.429 177.983 204.84 177.972 205.234 177.871C205.629 177.771 205.997 177.583 206.314 177.321C206.412 177.878 206.667 178.393 207.046 178.803C207.425 179.213 207.912 179.499 208.448 179.627C208.984 179.755 209.544 179.718 210.059 179.522C210.575 179.326 211.024 178.979 211.35 178.523C211.689 178.791 212.084 178.976 212.503 179.063C212.922 179.15 213.355 179.137 213.768 179.026C214.182 178.914 214.565 178.707 214.89 178.42C215.214 178.133 215.47 177.774 215.638 177.369C215.956 177.402 216.277 177.365 216.58 177.261C216.884 177.158 217.162 176.989 217.398 176.767C217.634 176.545 217.821 176.275 217.948 175.973C218.076 175.671 218.14 175.346 218.137 175.017C218.133 174.688 218.063 174.364 217.929 174.065C217.796 173.766 217.603 173.499 217.363 173.282C217.123 173.065 216.841 172.903 216.536 172.805C216.231 172.708 215.909 172.678 215.592 172.717L215.592 172.717ZM165.053 171.516C165.05 171.53 165.047 171.545 165.045 171.559C165.024 171.558 165.004 171.553 164.984 171.553C164.899 171.555 164.815 171.564 164.732 171.579C164.736 171.569 164.743 171.56 164.747 171.549C164.849 171.544 164.951 171.533 165.053 171.516ZM188.677 170.548C188.669 170.514 188.654 170.483 188.644 170.45C189.076 170.141 189.416 169.716 189.627 169.221C189.999 169.219 190.366 169.136 190.705 168.978C191.044 168.82 191.347 168.591 191.593 168.305C191.572 168.416 191.561 168.529 191.56 168.643C191.563 168.821 191.592 168.997 191.646 169.165C191.161 169.514 190.793 170.01 190.595 170.584C189.98 170.337 189.3 170.325 188.677 170.548V170.548ZM205.613 170.765C205.611 170.729 205.616 170.692 205.613 170.657C205.685 170.657 205.757 170.652 205.829 170.642C205.939 171.018 206.122 171.368 206.368 171.669C206.314 171.684 206.258 171.694 206.206 171.712C206.115 171.338 205.906 171.005 205.613 170.765Z" fill="#F9A825"/>
<path id="Vector_28" d="M157.109 176.21C156.307 176.209 155.513 176.378 154.776 176.704C154.039 177.03 153.375 177.507 152.823 178.106C152.271 178.706 151.844 179.414 151.567 180.189C151.29 180.964 151.17 181.789 151.213 182.613L155.042 236.809C155.122 238.362 155.779 239.825 156.876 240.895C157.973 241.965 159.426 242.561 160.938 242.561H210.308C211.819 242.561 213.273 241.965 214.37 240.895C215.467 239.825 216.123 238.362 216.204 236.809L220.033 182.613C220.076 181.789 219.956 180.964 219.679 180.189C219.402 179.414 218.975 178.706 218.423 178.106C217.871 177.507 217.207 177.03 216.47 176.704C215.733 176.378 214.939 176.209 214.137 176.21H157.109Z" fill="#3F3D56"/>
<path id="Vector_29" d="M163.287 176.21H159.894V242.561H163.287V176.21Z" fill="#6C63FF"/>
<path id="Vector_30" d="M172.9 176.21H169.507V242.561H172.9V176.21Z" fill="#6C63FF"/>
<path id="Vector_31" d="M182.513 176.21H179.12V242.561H182.513V176.21Z" fill="#6C63FF"/>
<path id="Vector_32" d="M192.126 176.21H188.733V242.561H192.126V176.21Z" fill="#6C63FF"/>
<path id="Vector_33" d="M201.738 176.21H198.346V242.561H201.738V176.21Z" fill="#6C63FF"/>
<path id="Vector_34" d="M211.351 176.21H207.959V242.561H211.351V176.21Z" fill="#6C63FF"/>
<path id="Vector_35" d="M207.951 209.098L196.96 215.697C196.96 215.697 170.399 238.323 188.717 242.094C207.035 245.864 211.614 226.067 211.614 226.067L218.025 218.525L207.951 209.098Z" fill="#FFB8B8"/>
<path id="Vector_36" d="M222.605 114.826L234.511 115.769C234.511 115.769 243.67 124.253 242.754 135.566C242.754 135.566 250.997 160.077 249.165 170.447C249.165 170.447 250.997 187.416 248.249 194.015C245.502 200.614 222.605 226.067 222.605 226.067C222.605 226.067 201.539 209.098 202.455 208.156L229.932 179.874L216.193 161.019L222.605 114.826Z" fill="#E6E6E6"/>
<path id="handleft" d="M153.915 155.211L167.699 158.241C167.699 158.241 200.965 168.394 177.886 169.61C154.808 170.826 149.185 162.332 149.185 162.332L141.17 158.999L153.915 155.211Z" fill="#FFB8B8"/>
<path id="armleft" d="M155.733 105.696L144.906 107.489C144.906 107.489 118.93 120.572 114.204 133.4C114.204 133.4 111.761 141.637 115.166 144.913C118.57 148.189 147.178 161.083 147.178 161.083C147.178 161.083 164.135 156.028 162.99 155.549L138.332 138.4L155.774 129.493L155.733 105.696Z" fill="#E6E6E6"/>
</g>
<defs>
<clipPath id="clip0">
<rect width="407" height="400" fill="white"/>
</clipPath>
</defs>
</svg>
